<?xml version="1.0" standalone="no"?>
<!DOCTYPE svg PUBLIC "-//W3C//DTD SVG 20010904//EN"
 "http://www.w3.org/TR/2001/REC-SVG-20010904/DTD/svg10.dtd">
<svg version="1.0" xmlns="http://www.w3.org/2000/svg"
 width="1024.000000pt" height="1024.000000pt" viewBox="0 0 1024.000000 1024.000000"
 preserveAspectRatio="xMidYMid meet">

<g transform="translate(0.000000,1024.000000) scale(0.100000,-0.100000)"
fill="#000000" stroke="none">
<path d="M4825 9653 c-389 -34 -769 -110 -1125 -225 -379 -122 -806 -328
-1125 -541 -328 -220 -562 -423 -906 -790 l-54 -57 -75 22 c-62 19 -98 23
-210 22 -126 0 -140 -2 -217 -31 -207 -79 -337 -228 -394 -453 -18 -72 -21
-104 -16 -215 7 -188 49 -312 160 -473 l50 -72 -58 -123 c-131 -279 -242 -693
-292 -1087 -25 -203 -25 -792 0 -990 127 -999 553 -1872 1272 -2608 256 -262
492 -458 790 -655 1251 -825 2762 -994 4120 -460 167 66 474 213 640 308 545
309 1034 742 1419 1256 381 507 628 1021 781 1624 79 311 113 571 122 925 15
634 -85 1172 -332 1785 -193 479 -409 834 -746 1225 -128 148 -391 412 -509
512 -582 490 -1236 817 -1980 992 -208 48 -472 88 -699 106 -124 9 -522 11
-616 3z m-31 -315 c21 -98 22 -96 -112 -303 -103 -158 -138 -218 -153 -258
-15 -42 -34 -50 -146 -62 l-62 -7 -7 39 c-4 21 -28 148 -55 283 -27 134 -45
248 -41 251 9 9 472 77 529 78 36 1 43 -2 47 -21z m731 -179 c231 -26 486 -78
688 -141 l99 -30 55 17 c129 41 276 -24 341 -149 63 -122 9 -282 -113 -333
-38 -15 -48 -26 -69 -73 -68 -153 -185 -410 -284 -626 -62 -132 -112 -243
-112 -246 0 -4 24 -18 54 -31 30 -14 103 -53 163 -87 474 -273 811 -634 1054
-1127 l50 -103 27 17 c64 41 539 363 662 449 154 108 186 127 201 119 5 -4 41
-53 79 -110 51 -76 66 -106 57 -112 -13 -10 -85 -44 -557 -263 -484 -224 -516
-244 -539 -326 -6 -22 -6 -56 -1 -92 37 -229 51 -646 30 -897 -25 -292 -76
-544 -166 -818 -25 -76 -43 -145 -40 -152 24 -62 403 -229 946 -415 140 -48
282 -98 314 -110 45 -17 82 -23 152 -24 86 -1 95 -3 135 -31 71 -50 103 -104
107 -183 6 -107 -43 -190 -135 -229 -49 -20 -139 -17 -190 8 -44 21 -103 90
-103 121 0 10 -23 32 -57 54 -32 20 -146 99 -253 174 -319 225 -465 314 -604
370 l-68 28 -65 -131 c-228 -463 -650 -874 -1150 -1118 -68 -33 -123 -62 -123
-63 0 -16 151 -334 369 -780 89 -181 161 -332 161 -336 0 -15 -308 -160 -341
-160 -10 0 -46 111 -144 450 -42 146 -101 346 -130 445 -29 99 -63 213 -75
253 -20 67 -23 73 -43 67 -258 -77 -446 -106 -722 -112 -329 -8 -576 30 -895
137 -79 27 -145 48 -146 47 0 -1 -34 -65 -74 -142 -164 -315 -376 -689 -412
-726 -45 -46 -48 -76 -12 -119 51 -60 27 -110 -53 -110 -114 0 -201 114 -160
211 8 19 86 153 174 299 153 255 383 652 383 663 0 2 -61 42 -136 87 -268 163
-539 389 -711 592 -93 111 -187 248 -263 386 -34 61 -66 112 -71 112 -17 0
-362 -176 -484 -247 -66 -39 -192 -117 -280 -173 -88 -57 -174 -111 -192 -122
-19 -11 -34 -30 -38 -47 -7 -32 -65 -91 -112 -115 -43 -22 -137 -20 -188 3
-91 41 -146 153 -125 255 13 63 45 110 101 148 49 33 94 43 161 35 44 -6 77 3
331 92 364 127 530 190 700 262 162 69 323 149 354 175 l23 19 -45 132 c-92
272 -154 575 -176 856 -17 214 -7 603 20 796 l22 153 -21 44 c-12 24 -36 55
-53 70 -32 27 -281 152 -442 222 -502 218 -617 272 -613 286 2 6 49 55 105
110 l103 99 107 -99 c58 -55 148 -141 198 -191 94 -96 139 -123 200 -123 35 0
85 20 115 45 13 11 30 -1 115 -76 55 -49 105 -89 110 -89 6 0 36 48 68 106
150 276 289 467 471 650 197 197 394 340 642 464 71 36 131 66 134 68 6 4 0
18 -162 372 -79 173 -170 374 -201 445 -56 128 -58 130 -102 148 -122 51 -172
200 -110 330 94 200 375 208 478 13 29 -56 30 -158 1 -207 -19 -31 -20 -39 -8
-79 7 -25 35 -128 64 -230 98 -352 202 -715 205 -718 2 -2 59 13 126 32 258
73 448 100 709 100 255 0 459 -29 707 -99 67 -19 126 -35 131 -35 5 0 19 37
31 83 12 45 35 125 51 177 15 52 52 178 80 280 28 102 70 250 92 329 l41 145
-31 26 c-73 61 -503 159 -827 189 -60 6 -174 13 -252 17 -79 4 -143 8 -143 10
0 3 43 79 137 243 l25 44 137 -7 c75 -4 177 -11 226 -17z m1668 -451 c163
-109 208 -147 198 -166 -5 -9 -57 -82 -115 -162 -58 -80 -220 -306 -361 -502
-141 -197 -260 -360 -264 -363 -5 -2 -59 29 -121 70 -62 41 -117 75 -121 75
-5 0 -9 5 -9 10 0 6 66 115 147 243 80 127 173 275 206 327 33 52 106 167 162
255 56 88 118 186 138 218 20 31 39 57 43 57 3 0 47 -28 97 -62z m-3966 -69
c78 -106 189 -258 228 -313 224 -314 365 -518 365 -526 0 -3 -61 -55 -135
-114 -93 -73 -140 -104 -149 -99 -8 4 -92 98 -186 208 -291 339 -554 648 -567
665 -13 19 -25 9 195 163 123 86 162 109 177 104 5 -2 38 -41 72 -88z m1617
-61 c3 -17 5 -32 4 -33 -2 -2 -82 -15 -178 -29 -233 -36 -220 -32 -219 -70 2
-56 14 -91 29 -89 8 1 83 11 165 23 83 11 166 22 186 25 34 5 37 3 43 -27 8
-40 1 -44 -83 -52 -72 -7 -290 -44 -301 -51 -6 -4 6 -115 14 -122 1 -1 63 6
137 17 74 10 162 22 196 26 l61 6 7 -48 c4 -27 12 -84 20 -127 9 -57 9 -79 1
-82 -6 -1 -60 -8 -121 -15 -60 -7 -155 -21 -210 -31 -54 -10 -102 -16 -106
-11 -3 4 -14 43 -23 87 -10 44 -40 181 -67 304 -51 232 -56 271 -39 271 6 0
77 11 158 25 167 27 197 31 268 33 50 2 52 1 58 -30z m2818 -208 c131 -109
363 -315 550 -489 l146 -136 -251 -252 c-139 -139 -256 -253 -262 -253 -11 1
-72 54 -350 305 -97 88 -204 184 -238 214 -34 29 -81 71 -105 93 l-43 39 54
67 c46 57 228 296 346 454 20 27 39 47 43 45 4 -1 53 -40 110 -87z m-4961
-119 c130 -149 563 -662 657 -777 l43 -54 -63 -57 c-35 -32 -124 -116 -198
-188 -74 -72 -169 -162 -210 -200 -41 -39 -142 -133 -223 -209 -179 -169 -201
-186 -244 -186 -34 0 -65 26 -171 144 l-42 47 22 27 c23 27 45 48 314 297 395
366 554 518 554 529 0 11 -62 85 -412 494 l-149 173 23 19 c13 11 26 18 29 17
3 -1 35 -35 70 -76z m-281 -193 c103 -118 313 -365 330 -389 l20 -27 -183
-168 c-100 -93 -204 -190 -232 -215 -116 -108 -220 -197 -226 -194 -3 2 -43
52 -89 110 l-83 106 32 33 c17 17 31 35 31 39 0 9 -63 101 -133 196 -26 35
-44 68 -40 72 100 96 520 479 527 479 5 0 25 -19 46 -42z m-916 -341 c168 -77
280 -255 279 -442 0 -141 -55 -240 -161 -292 -48 -24 -69 -28 -137 -28 -69 0
-89 5 -149 33 -123 58 -223 186 -256 331 -25 108 4 266 62 331 90 100 232 126
362 67z m5595 -104 c179 -160 476 -437 476 -444 0 -9 -176 -207 -185 -208 -3
0 -79 67 -170 151 -91 83 -216 196 -277 251 -62 55 -113 102 -113 105 0 15
176 212 189 212 2 0 38 -30 80 -67z m1355 -199 c42 -52 76 -100 76 -104 0 -5
-30 -34 -67 -63 -106 -85 -937 -707 -945 -707 -4 0 -41 45 -82 99 l-75 99 77
69 c42 37 136 123 208 190 l131 122 43 -40 43 -40 41 38 c22 21 81 77 131 124
146 141 329 308 337 309 4 0 41 -43 82 -96z m377 -446 c251 -501 393 -981 440
-1488 19 -201 17 -596 -4 -761 -41 -327 -97 -587 -184 -849 -47 -139 -88 -240
-98 -240 -3 0 -53 20 -111 45 -57 25 -109 45 -114 45 -16 0 -11 26 19 102 98
247 186 635 222 973 26 253 10 671 -37 935 -72 411 -224 838 -412 1164 -29 49
-52 92 -52 95 0 7 8 12 139 93 52 31 98 55 103 52 5 -3 45 -78 89 -166z
m-7424 -537 l103 -52 -30 -60 c-42 -82 -111 -254 -150 -372 -18 -54 -38 -101
-46 -104 -18 -7 -244 57 -244 69 0 16 49 205 76 291 14 45 49 135 76 200 l50
117 32 -19 c17 -10 77 -42 133 -70z m7091 -133 c69 -174 217 -597 210 -603 -1
-2 -257 -5 -568 -6 l-565 -2 4 149 c2 82 6 152 10 155 3 4 173 74 376 157 204
83 397 162 430 175 33 14 65 26 71 26 7 1 21 -23 32 -51z m-6281 -38 c201 -56
376 -230 421 -420 29 -121 22 -261 -14 -291 -21 -17 -62 -3 -67 24 -4 19 -4
18 -6 -5 0 -16 -7 -28 -15 -28 -9 0 -12 8 -8 25 2 15 0 25 -7 25 -6 0 -11 -5
-11 -12 0 -6 -3 -9 -6 -5 -4 3 -10 46 -15 94 -12 119 -56 209 -139 286 -296
274 -760 67 -760 -340 0 -42 -1 -43 -32 -42 -24 1 -27 3 -10 6 19 4 22 10 21
46 -2 34 -3 36 -6 12 -6 -42 -23 -56 -24 -19 l-1 29 -13 -30 c-7 -16 -11 -35
-8 -42 4 -9 -6 -13 -28 -14 -24 -1 -27 -3 -11 -6 32 -6 27 -23 -7 -23 -34 0
-37 8 -46 120 -14 160 55 342 174 459 161 159 390 215 618 151z m-1087 -674
l105 -23 -2 -29 c-19 -264 -9 -796 17 -904 12 -50 43 -239 46 -280 1 -19 3
-39 3 -43 1 -5 6 -5 11 -2 11 7 13 -6 4 -30 -5 -13 -10 -8 -20 21 -7 21 -11
41 -8 46 6 9 -24 108 -37 122 -4 5 -11 -4 -14 -20 -12 -54 -15 -49 -10 16 3
48 2 61 -6 50 -8 -11 -9 5 -6 59 3 44 1 68 -4 59 -5 -9 -9 -54 -10 -102 l-1
-86 -39 0 c-37 0 -39 -2 -39 -30 0 -34 -15 -40 -25 -10 -3 11 -11 20 -17 20
-6 0 -8 11 -6 25 4 21 3 23 -13 14 -20 -10 -26 -39 -8 -39 6 0 17 -7 25 -15
14 -13 14 -16 1 -21 -11 -4 -13 -13 -7 -41 5 -19 5 -45 0 -57 -7 -18 -8 -16
-8 11 1 18 -5 39 -12 48 -7 8 -10 24 -7 35 3 11 1 18 -4 14 -5 -3 -10 5 -11
18 -3 53 -7 77 -22 166 -22 123 -46 418 -46 567 0 116 13 320 26 418 7 56 1
55 144 23z m7646 -18 c-3 -13 -6 -28 -6 -34 0 -6 -12 -23 -26 -38 l-27 -26
-539 0 c-602 0 -572 -3 -602 71 -9 22 -16 42 -16 44 0 3 275 5 611 5 l611 0
-6 -22z m-7223 -25 c-7 -2 -19 -2 -25 0 -7 3 -2 5 12 5 14 0 19 -2 13 -5z
m6367 -218 c-1 -20 -115 -228 -125 -227 -5 0 -14 19 -19 41 -9 39 -12 41 -55
46 -65 9 -70 12 -81 40 -19 49 20 101 80 107 76 7 200 3 200 -7z m385 -42 c14
-31 28 -67 31 -80 l6 -23 -171 0 c-130 0 -171 3 -171 13 0 21 58 134 72 140 7
3 57 6 111 6 l97 1 25 -57z m374 23 c28 -28 33 -79 10 -102 -9 -8 -39 -17 -67
-21 -52 -6 -52 -6 -64 -51 -10 -42 -12 -44 -26 -26 -16 20 -85 165 -96 201 -9
28 12 33 129 27 79 -3 92 -7 114 -28z m-6123 0 c15 -12 17 -18 8 -33 -10 -17
-42 -18 -500 -23 -504 -5 -554 -2 -554 34 0 8 8 20 18 25 11 7 195 11 513 11
416 0 498 -2 515 -14z m-496 -167 c197 -31 352 -184 385 -381 4 -28 11 -38 24
-38 35 0 140 -61 181 -106 23 -25 56 -75 73 -112 28 -60 32 -77 32 -157 0 -80
-4 -97 -31 -156 -38 -80 -95 -138 -172 -176 l-57 -28 -380 0 -380 0 -48 24
c-65 32 -138 105 -174 172 -26 50 -28 63 -28 159 1 79 5 116 19 150 12 27 18
61 16 85 -2 22 -4 87 -4 145 -1 100 1 108 32 168 71 137 190 225 342 252 65
11 97 11 170 -1z m6174 -241 c3 -18 10 -63 17 -100 10 -59 13 -67 37 -73 15
-3 43 -19 62 -34 19 -15 40 -31 47 -34 7 -4 44 8 82 28 39 19 76 35 83 35 7 0
37 -42 66 -92 l53 -93 -38 -33 c-21 -18 -57 -44 -80 -58 l-43 -26 0 -76 1 -77
52 -38 c29 -21 63 -47 76 -58 l24 -19 -53 -88 c-29 -48 -55 -89 -57 -91 -5 -7
-71 27 -123 61 -35 24 -47 28 -60 19 -8 -6 -38 -23 -66 -36 l-52 -25 -12 -83
c-6 -45 -16 -88 -22 -94 -7 -9 -41 -13 -103 -13 l-92 0 -11 53 c-7 28 -15 73
-18 100 -5 35 -11 47 -23 47 -10 0 -38 13 -64 30 l-46 29 -53 -34 c-51 -34
-115 -61 -123 -53 -3 2 -27 44 -55 93 l-51 88 28 23 c15 12 52 38 81 56 47 30
52 36 47 62 -3 16 -5 53 -5 82 0 35 -4 54 -12 54 -17 0 -137 93 -138 107 0 17
92 172 106 177 6 2 46 -11 87 -31 l74 -35 41 30 c23 16 54 35 71 41 28 12 30
18 47 112 l17 99 97 0 98 0 6 -32z m-7127 -605 c-1 -48 -4 -68 -8 -53 -6 22
-7 23 -8 4 -1 -12 2 -36 5 -54 5 -23 9 -28 16 -18 7 9 8 4 5 -16 -3 -16 -1
-42 3 -57 5 -16 5 -29 2 -29 -4 0 -17 39 -29 87 -18 77 -19 92 -8 130 7 24 11
52 8 63 -3 11 -1 20 5 20 7 0 10 -29 9 -77z m20 45 c-3 -7 -5 -2 -5 12 0 14 2
19 5 13 2 -7 2 -19 0 -25z m213 -145 c0 -12 -3 -24 -7 -26 -5 -3 -8 12 -8 34
-1 22 2 33 7 26 4 -6 8 -22 8 -34z m44 -183 c4 -25 3 -31 -4 -20 -5 8 -10 26
-10 39 0 32 6 24 14 -19z m-234 -5 c0 -5 -5 -3 -10 5 -5 8 -10 20 -10 25 0 6
5 3 10 -5 5 -8 10 -19 10 -25z m17 -67 c-3 -7 -5 -2 -5 12 0 14 2 19 5 13 2
-7 2 -19 0 -25z m23 -54 c0 -8 -4 -12 -10 -9 -5 3 -10 10 -10 16 0 5 5 9 10 9
6 0 10 -7 10 -16z m44 -119 c3 -8 1 -15 -4 -15 -6 0 -10 7 -10 15 0 8 2 15 4
15 2 0 6 -7 10 -15z m6504 -345 c50 -41 92 -77 92 -81 0 -9 -154 -215 -186
-248 l-23 -25 -58 39 c-73 48 -213 158 -213 167 0 4 47 71 106 148 l105 142
42 -34 c23 -19 84 -68 135 -108z m-4932 -15 c43 -64 83 -122 89 -130 5 -8 7
-16 5 -18 -24 -22 -263 -177 -273 -177 -7 0 -28 21 -47 48 -81 113 -140 206
-137 216 7 22 263 189 277 181 4 -2 42 -56 86 -120z m5411 -417 c125 -101 231
-186 237 -190 6 -4 2 -18 -9 -35 -18 -28 -142 -181 -208 -257 l-34 -40 -49 41
c-27 23 -121 102 -209 176 -88 74 -170 145 -182 158 l-21 24 79 100 c43 55 96
123 117 152 20 29 41 53 45 53 4 0 110 -82 234 -182z m-5937 168 c0 -2 -7 -7
-16 -10 -8 -3 -12 -2 -9 4 6 10 25 14 25 6z m-65 -46 c-16 -16 -31 -28 -33
-25 -4 4 48 54 57 55 3 0 -8 -13 -24 -30z m-97 -84 c-32 -33 -58 -51 -67 -48
-11 4 -9 9 9 21 13 9 42 31 63 49 57 47 56 39 -5 -22z m1039 -68 l102 -101
-59 -71 c-32 -39 -86 -98 -119 -130 l-60 -59 -49 42 c-47 39 -192 193 -192
203 0 10 258 217 270 218 2 0 51 -46 107 -102z m-779 57 c12 -13 18 -26 13
-29 -4 -3 -15 8 -25 25 -21 35 -17 37 12 4z m82 -109 c0 -6 -12 6 -26 25 -14
19 -30 33 -35 31 -6 -1 -7 3 -3 9 5 8 16 1 35 -22 16 -19 29 -38 29 -43z
m-235 44 c12 -5 -1 -6 -35 -3 -30 3 -57 7 -59 9 -9 8 75 2 94 -6z m53 -40 c7
-11 9 -20 4 -20 -4 0 -13 9 -20 20 -7 11 -9 20 -4 20 4 0 13 -9 20 -20z m9
-62 c-3 -7 -5 -2 -5 12 0 14 2 19 5 13 2 -7 2 -19 0 -25z m213 15 c0 -3 -6
-11 -14 -19 -13 -12 -15 -12 -13 4 1 15 27 29 27 15z m-610 -7 c0 -3 -4 -8
-10 -11 -5 -3 -10 -1 -10 4 0 6 5 11 10 11 6 0 10 -2 10 -4z m530 -65 c-25
-22 -47 -37 -49 -35 -3 2 4 11 15 18 10 8 30 23 44 35 45 37 36 21 -10 -18z
m-597 11 c-10 -11 -22 -17 -26 -14 -5 2 0 10 10 18 26 20 36 17 16 -4z m5300
-37 c24 -29 26 -37 16 -53 -28 -44 -44 -43 -84 5 l-39 46 27 23 c32 27 42 24
80 -21z m-4873 -25 c-37 -28 -50 -24 -15 4 17 13 32 22 35 19 3 -2 -6 -13 -20
-23z m1341 -119 c57 -47 120 -99 140 -117 l37 -32 -115 -171 -115 -170 -26 17
c-137 87 -312 217 -328 244 -3 5 32 59 78 121 47 62 104 140 129 173 l44 62
26 -22 c14 -11 73 -59 130 -105z m4094 101 c-3 -3 -11 0 -18 7 -9 10 -8 11 6
5 10 -3 15 -9 12 -12z m-707 -56 l47 -45 -22 -20 c-12 -12 -26 -21 -31 -21 -5
0 -27 21 -47 46 -34 41 -36 47 -21 56 9 5 14 13 11 19 -16 25 21 4 63 -35z
m761 11 c9 -12 8 -16 -6 -22 -16 -7 -15 -9 6 -14 32 -8 38 -66 9 -82 -31 -17
-44 -5 -20 19 30 30 27 48 -10 58 -23 7 -32 16 -33 34 -2 14 -1 28 2 33 5 9
35 -6 52 -26z m-5210 4 c-13 -11 -26 -17 -28 -15 -5 5 30 33 43 34 4 0 -2 -9
-15 -19z m5064 -30 c-5 -18 -33 -38 -33 -24 0 6 30 43 36 43 1 0 0 -9 -3 -19z
m-5113 -6 c-7 -8 -17 -15 -23 -15 -6 0 -2 7 9 15 25 19 30 19 14 0z m5060 -35
c0 -5 -2 -10 -4 -10 -3 0 -8 5 -11 10 -3 6 -1 10 4 10 6 0 11 -4 11 -10z m250
-5 c0 -8 -4 -15 -10 -15 -5 0 -10 7 -10 15 0 8 5 15 10 15 6 0 10 -7 10 -15z
m-284 -14 c0 -11 -4 -17 -9 -14 -4 2 -16 -1 -25 -8 -9 -8 -6 -1 7 14 14 15 25
27 26 27 0 0 1 -9 1 -19z m349 -21 c-3 -5 -14 -10 -23 -9 -14 0 -13 2 3 9 27
11 27 11 20 0z m-5037 -45 c-3 -3 -9 2 -12 12 -6 14 -5 15 5 6 7 -7 10 -15 7
-18z m4942 16 c0 -6 -5 -13 -10 -16 -8 -5 -8 -11 0 -20 9 -11 7 -12 -10 -8
-13 4 -26 -1 -36 -13 -14 -18 -14 -17 -4 5 10 18 9 25 -1 32 -11 6 -11 9 1 13
8 2 22 7 30 9 24 8 30 8 30 -2z m150 -17 c0 -2 -12 -1 -27 2 -26 7 -27 6 -14
-10 13 -15 13 -19 0 -26 -10 -7 -16 -3 -21 13 -3 12 -6 16 -7 10 -1 -18 -21
-16 -21 1 0 19 50 36 73 24 9 -5 17 -11 17 -14z m-5370 -4 c8 -5 12 -11 10
-14 -3 -2 -14 2 -24 10 -22 15 -10 19 14 4z m5365 -20 c3 -5 1 -10 -4 -10 -6
0 -11 5 -11 10 0 6 2 10 4 10 3 0 8 -4 11 -10z m-265 -39 c-16 -31 -12 -36 13
-15 20 17 20 16 -2 -9 -14 -15 -28 -27 -33 -27 -12 0 -10 44 4 58 19 19 30 14
18 -7z m305 9 c3 -5 1 -10 -4 -10 -6 0 -11 5 -11 10 0 6 2 10 4 10 3 0 8 -4
11 -10z m51 -26 c11 -16 23 -23 33 -19 13 5 14 4 4 -6 -10 -10 -19 -7 -44 19
-17 18 -26 32 -20 32 6 0 18 -11 27 -26z m-166 2 c0 -2 -8 -10 -17 -17 -16
-13 -17 -12 -4 4 13 16 21 21 21 13z m-513 -31 c0 -8 -4 -12 -9 -9 -5 3 -15 2
-21 -3 -7 -4 -4 0 6 10 23 21 24 21 24 2z m236 -33 c-8 -8 -11 -17 -8 -20 3
-4 10 0 15 8 5 8 12 11 17 6 4 -4 0 -12 -10 -17 -9 -6 -27 -20 -39 -32 l-22
-22 17 28 c10 15 13 27 7 27 -8 0 -7 6 0 20 7 14 7 20 0 20 -5 0 -10 4 -10 9
0 5 11 4 24 -2 20 -10 21 -13 9 -25z m501 13 c-7 -17 -20 -20 -28 -6 -4 5 0
12 6 14 23 9 28 7 22 -8z m-5900 -10 c-4 -8 -11 -15 -16 -15 -6 0 -5 6 2 15 7
8 14 15 16 15 2 0 1 -7 -2 -15z m551 -15 c10 -11 16 -20 13 -20 -3 0 -13 9
-23 20 -10 11 -16 20 -13 20 3 0 13 -9 23 -20z m314 -27 c2 -2 2 -5 -1 -8 -2
-3 -18 10 -34 28 l-29 32 30 -25 c17 -14 32 -26 34 -27z m4255 -1 c2 -4 -4 -8
-14 -8 -10 0 -16 4 -14 8 3 4 9 8 14 8 5 0 11 -4 14 -8z m-71 -13 c-6 -6 -9
-17 -7 -24 3 -7 1 -15 -4 -19 -5 -3 -8 3 -7 12 1 20 13 42 23 42 3 0 1 -5 -5
-11z m851 -5 c4 -10 1 -14 -6 -12 -15 5 -23 28 -10 28 5 0 13 -7 16 -16z
m-599 -31 c-10 -7 -16 -15 -13 -18 3 -3 18 4 34 16 l29 21 -29 -27 c-20 -18
-32 -23 -39 -16 -7 7 -7 15 1 24 7 8 9 17 5 21 -4 4 1 4 11 0 18 -7 18 -8 1
-21z m578 14 c3 -8 -3 -13 -14 -13 -19 0 -24 8 -12 19 10 11 20 8 26 -6z
m-373 -20 c0 -2 -10 -12 -22 -23 l-23 -19 19 23 c18 21 26 27 26 19z m-535
-27 c-3 -5 -16 -15 -28 -21 -19 -9 -19 -8 3 10 28 23 34 26 25 11z m245 -35
c-7 -8 -18 -15 -24 -15 -6 0 -2 7 8 15 25 19 32 19 16 0z m49 12 c-2 -1 -15
-11 -29 -22 l-25 -20 19 23 c11 12 24 22 29 22 6 0 8 -1 6 -3z m-4182 -75 c43
-32 115 -85 161 -117 45 -33 82 -63 82 -67 0 -9 -242 -384 -272 -421 l-23 -28
-90 56 c-50 31 -135 89 -190 128 -55 39 -102 72 -103 73 -5 3 53 76 203 253
72 84 134 160 140 167 5 8 11 14 12 14 1 0 37 -26 80 -58z m3847 2 c3 -8 2
-12 -4 -9 -6 3 -10 10 -10 16 0 14 7 11 14 -7z m237 -7 c-10 -9 -11 -8 -5 6 3
10 9 15 12 12 3 -3 0 -11 -7 -18z m-2391 -56 l0 -50 -180 -3 -180 -3 -27 -28
-28 -27 -3 -451 c-1 -248 -6 -449 -10 -447 -4 2 -29 12 -55 23 l-47 20 0 496
c0 372 3 498 12 507 9 9 82 12 265 12 l253 0 0 -49z m2560 9 c0 -5 -5 -10 -11
-10 -5 0 -7 5 -4 10 3 6 8 10 11 10 2 0 4 -4 4 -10z m-299 -83 c-10 -9 -11 -8
-5 6 3 10 9 15 12 12 3 -3 0 -11 -7 -18z m-2911 -372 l0 -375 -45 0 -45 0 0
375 0 375 45 0 45 0 0 -375z m1418 272 c15 -16 17 -49 20 -349 2 -286 1 -334
-13 -354 -15 -24 -17 -24 -190 -24 -133 0 -175 -3 -175 -12 0 -7 13 -47 29
-88 16 -41 28 -77 26 -80 -2 -4 -113 -7 -246 -8 -132 -1 -245 -5 -250 -8 -15
-9 -18 -17 68 184 4 9 -31 12 -159 12 -114 0 -168 4 -176 12 -18 18 -17 701 1
717 14 11 300 16 810 16 212 -1 239 -3 255 -18z m1592 -13 c0 -8 -19 -13 -24
-6 -3 5 1 9 9 9 8 0 15 -2 15 -3z m-1977 -921 c-13 -2 -35 -2 -50 0 -16 2 -5
4 22 4 28 0 40 -2 28 -4z"/>
<path d="M4975 7460 c-541 -39 -1120 -304 -1411 -647 -227 -267 -384 -687
-435 -1163 -17 -154 -17 -575 0 -720 66 -587 263 -1186 515 -1570 259 -395
745 -647 1333 -692 433 -33 914 86 1258 313 112 74 285 251 367 374 200 301
368 742 462 1216 142 711 77 1414 -179 1934 -65 133 -112 205 -199 307 -223
261 -634 493 -1051 593 -193 47 -462 69 -660 55z m445 -574 c328 -37 681 -146
1092 -336 21 -10 35 -31 57 -89 60 -155 132 -439 155 -604 l5 -38 -82 46
c-435 242 -833 389 -1217 447 -114 17 -488 17 -605 -1 -109 -16 -325 -64 -414
-92 -213 -65 -507 -192 -735 -317 -82 -45 -151 -80 -154 -78 -8 9 28 204 66
356 44 171 95 320 120 349 19 21 150 81 312 143 454 172 709 225 1090 227 102
0 241 -6 310 -13z m0 -972 c279 -40 597 -140 908 -285 130 -61 385 -189 400
-201 17 -15 16 -227 -3 -416 -20 -196 -69 -482 -82 -482 -4 0 -49 23 -102 51
-106 58 -596 302 -856 428 l-170 82 0 117 c0 109 -2 121 -29 177 -37 75 -117
154 -193 191 -52 26 -68 28 -163 29 -97 0 -110 -2 -172 -32 -85 -40 -151 -106
-191 -191 -30 -63 -32 -74 -32 -178 l1 -112 -31 -15 c-16 -9 -221 -110 -455
-225 -234 -115 -472 -234 -529 -265 -57 -31 -107 -57 -110 -57 -9 0 -58 250
-76 389 -8 63 -20 199 -26 303 -10 160 -10 191 2 203 17 16 248 135 369 189
611 276 1075 366 1540 300z m-276 -1111 c45 3 95 9 113 12 26 6 54 -4 160 -55
230 -112 767 -358 996 -456 161 -69 152 -42 76 -246 -47 -124 -163 -371 -193
-410 -12 -16 -34 -7 -267 110 -280 141 -895 442 -903 442 -3 0 -148 -70 -323
-156 -913 -447 -833 -411 -849 -389 -58 79 -254 532 -254 587 0 9 7 12 225
103 239 99 571 250 815 371 l225 111 49 -14 c34 -10 75 -13 130 -10z m480
-1187 l489 -244 -69 -41 c-38 -22 -119 -63 -179 -90 -522 -233 -1014 -224
-1530 30 -77 37 -153 79 -169 92 l-28 23 248 118 c137 64 353 170 479 236 127
65 239 118 250 119 11 0 240 -109 509 -243z"/>
<path d="M3134 8452 c-44 -31 -93 -67 -109 -79 l-27 -23 28 -33 c16 -18 36
-43 45 -56 l15 -24 48 34 c26 19 60 43 76 55 63 46 92 75 87 87 -9 21 -67 97
-75 97 -4 0 -43 -26 -88 -58z"/>
<path d="M3307 8311 c-15 -10 -61 -44 -102 -76 -66 -52 -73 -60 -63 -79 14
-28 59 -76 71 -76 12 0 206 142 206 152 1 10 -63 91 -74 94 -5 1 -23 -6 -38
-15z"/>
<path d="M3374 8037 c-65 -59 -62 -143 5 -200 81 -68 211 -3 211 106 0 80 -49
127 -134 127 -38 0 -53 -6 -82 -33z"/>
<path d="M3587 7804 c-26 -20 -47 -40 -47 -44 0 -4 14 -26 30 -49 34 -47 37
-46 104 12 l39 33 -27 42 c-14 23 -32 42 -39 42 -8 0 -35 -16 -60 -36z"/>
<path d="M3005 7389 c-45 -40 -48 -87 -9 -126 22 -22 32 -25 67 -20 72 10 103
88 55 140 -37 41 -71 42 -113 6z"/>
<path d="M2843 7245 c-37 -16 -53 -36 -60 -79 -5 -30 -1 -40 25 -66 39 -38 79
-40 121 -4 77 64 6 187 -86 149z"/>
<path d="M2295 7714 c-88 -80 -182 -167 -209 -194 l-49 -48 24 -31 c13 -16 26
-30 29 -30 3 -1 66 53 140 120 74 66 171 152 216 192 l81 72 -26 32 c-14 18
-30 33 -36 33 -5 -1 -82 -66 -170 -146z"/>
<path d="M2393 7555 c-106 -97 -193 -179 -193 -182 0 -3 12 -21 26 -40 l25
-33 192 177 c106 97 193 180 195 183 1 3 -10 20 -25 38 l-28 33 -192 -176z"/>
<path d="M1374 7461 c-110 -67 -36 -281 97 -281 87 0 134 55 127 146 -10 120
-130 192 -224 135z"/>
<path d="M6994 7538 c-50 -57 -61 -40 172 -252 l217 -197 33 32 c19 18 34 36
34 40 0 6 -260 245 -416 381 -20 18 -21 17 -40 -4z"/>
<path d="M2522 5625 c0 -16 2 -22 5 -12 2 9 2 23 0 30 -3 6 -5 -1 -5 -18z"/>
<path d="M1221 4564 c0 -11 3 -14 6 -6 3 7 2 16 -1 19 -3 4 -6 -2 -5 -13z"/>
<path d="M1124 4512 c2 -13 -2 -26 -11 -31 -25 -13 0 -19 26 -5 19 10 20 13 8
20 -8 5 -17 16 -21 24 -3 8 -4 5 -2 -8z"/>
<path d="M1251 4494 c0 -11 3 -14 6 -6 3 7 2 16 -1 19 -3 4 -6 -2 -5 -13z"/>
<path d="M1952 4756 c-97 -32 -161 -105 -172 -196 -4 -39 -10 -47 -39 -62 -55
-27 -91 -69 -106 -123 -27 -94 18 -188 108 -231 51 -24 56 -24 355 -24 188 0
320 4 347 11 24 6 63 27 86 47 174 149 38 429 -198 410 l-54 -5 -24 47 c-25
49 -66 90 -118 116 -42 22 -133 27 -185 10z"/>
<path d="M8075 4525 c-140 -65 -146 -252 -11 -322 40 -21 116 -12 161 18 107
71 98 240 -15 297 -50 25 -92 27 -135 7z"/>
<path d="M7552 3380 c-32 -13 -53 -66 -40 -102 10 -29 52 -58 83 -58 26 0 75
55 75 85 0 31 -49 85 -77 84 -10 0 -28 -4 -41 -9z"/>
<path d="M2615 3364 c-33 -36 -33 -87 0 -119 33 -34 76 -33 116 3 28 25 31 33
25 65 -14 72 -94 101 -141 51z"/>
<path d="M8044 2941 c-57 -25 -80 -101 -49 -161 19 -37 43 -50 95 -50 34 0 48
6 76 34 45 45 47 101 7 146 -30 34 -89 48 -129 31z"/>
<path d="M2995 2908 c-53 -28 -61 -89 -19 -132 37 -36 75 -34 108 5 40 47 34
99 -15 124 -33 18 -47 18 -74 3z"/>
<path d="M3391 2441 c-17 -21 -31 -41 -31 -44 0 -3 27 -26 59 -51 56 -43 91
-57 91 -37 0 4 11 24 24 44 l24 35 -26 24 c-44 40 -84 68 -98 68 -7 0 -26 -18
-43 -39z"/>
<path d="M7690 2691 c0 -5 6 -12 13 -14 9 -4 8 -8 -3 -16 -13 -9 -13 -11 2
-11 25 0 31 16 12 34 -18 18 -24 20 -24 7z"/>
<path d="M3105 1947 c-18 -15 -28 -36 -32 -64 -5 -39 -2 -46 31 -79 33 -33 40
-36 74 -29 45 8 61 21 78 60 38 92 -76 177 -151 112z"/>
<path d="M4710 1603 l0 -258 473 0 c414 0 472 2 469 15 -2 8 -47 92 -100 185
-52 94 -114 203 -136 242 l-41 73 -332 0 -333 0 0 -257z"/>
</g>
</svg>